<svg xmlns="http://www.w3.org/2000/svg" viewBox="0 0 474.37 474.53"><defs><style>.a{fill:#fefefe;}.b{fill:#15b14b;}</style></defs><path class="a" d="M491.46,249.4C490.57,381.6,384,487.75,253.34,486.68c-132-1.08-237.09-107.37-236.24-239C17.93,117,124.75,11.32,255.06,12.16,386,13,492.33,119.7,491.46,249.4Z" transform="translate(-17.09 -12.16)"/><path class="b" d="M444.35,249.62c-.06,104.75-85.16,190-189.77,190C149.21,439.67,63.94,354.48,64,249.22s85.54-190.17,191.56-190C359.53,59.39,444.41,145,444.35,249.62Z" transform="translate(-17.09 -12.16)"/><path class="a" d="M200.11,289.89,284.86,214l59.55-53.33c13.2-11.84,22.08-11.43,33.9,1.67,1.17,1.29,2.36,2.56,3.51,3.87,8.45,9.64,7.69,20.51-2.1,28.95q-68.89,59.35-137.83,118.69c-8.19,7-16.3,14.21-24.48,21.28-6.2,5.37-12.95,9.8-21.27,11.09-7.59,1.17-14.31-.75-19.27-6.76-17.33-21-34.64-42-51.69-63.22-7.09-8.81-5.61-19.34,3.06-26.72q3.75-3.2,7.61-6.25c10-7.84,20.27-6.75,28.43,3.1,10.46,12.65,20.82,25.38,31.23,38.06C197,286.21,198.48,288,200.11,289.89Z" transform="translate(-17.09 -12.16)"/></svg>