<svg xmlns="http://www.w3.org/2000/svg" xmlns:xlink="http://www.w3.org/1999/xlink" viewBox="0 0 153.3 201.07"><defs><style>.a{fill:none;}.b{clip-path:url(#a);}.c,.e{fill:#fff;stroke:#1f140f;stroke-linecap:round;stroke-linejoin:round;}.c{stroke-width:6px;}.d{clip-path:url(#b);}.e{stroke-width:4px;}</style><clipPath id="a" transform="translate(-47.12 -8.93)"><rect class="a" x="47.12" y="8.93" width="76.65" height="201.07"/></clipPath><clipPath id="b" transform="translate(-47.12 -8.93)"><rect class="a" x="123.76" y="8.93" width="76.65" height="201.07"/></clipPath></defs><g class="b"><path class="c" d="M129.88,184.72,70.71,125.54c-13.39-13.38-22.19.17-12.8,9.56l71.9,71.9" transform="translate(-47.12 -8.93)"/><path class="c" d="M126,127.79,66.82,68.61C53.44,55.23,44.64,68.78,54,78.17l71.9,71.9" transform="translate(-47.12 -8.93)"/><path class="c" d="M129.88,76.72,70.71,17.54c-13.39-13.38-22.19.17-12.8,9.56L129.81,99" transform="translate(-47.12 -8.93)"/></g><g class="d"><path class="c" d="M117.64,184.72l59.18-59.18c13.39-13.38,22.19.17,12.8,9.56L117.72,207" transform="translate(-47.12 -8.93)"/><path class="c" d="M121.53,127.79l59.18-59.18c13.38-13.38,22.18.17,12.79,9.56l-71.9,71.9" transform="translate(-47.12 -8.93)"/><path class="c" d="M117.64,76.72l59.18-59.18c13.39-13.38,22.19.17,12.8,9.56L117.72,99" transform="translate(-47.12 -8.93)"/></g><path class="e" d="M54.74,93.21" transform="translate(-47.12 -8.93)"/></svg>