<svg xmlns="http://www.w3.org/2000/svg" viewBox="0 0 499.84 499.07"><defs><style>.a{fill:#1f140f;}.b,.c,.d{fill:none;stroke:#1f140f;stroke-miterlimit:10;}.b,.d{stroke-linecap:round;}.b,.c{stroke-width:20px;}.d{stroke-width:14px;}</style></defs><path class="a" d="M252.94,216.45c24.34.21,41.54,12,44.57,31,1,6,2.41,13.61-5.61,15.4-7,1.55-8.52-5.09-9.79-10.55-3.89-16.62-15.85-20.36-31-20.22-14.52.14-25.46,4.56-29.08,20-1.29,5.49-2.73,12.17-9.63,10.83-8-1.57-6.78-9.22-5.88-15.23C209.47,228.09,227.28,216.23,252.94,216.45Z" transform="translate(0.08 -0.18)"/><path class="a" d="M365.49,124.2c-20.79-1.71-45.46-4.28-61.6-27.06-3.71-5.24-10.05-11.9-1.42-17.49,7.4-4.8,10.6,2.75,14.17,7.56,15.17,20.45,37.61,19.92,59.6,20.65,6.17.21,14.09-.44,14.55,7.57.6,10.25-8.42,8.38-15,8.75C373.76,124.3,371.7,124.2,365.49,124.2Z" transform="translate(0.08 -0.18)"/><path class="a" d="M138.83,124.19c-6.11,0-8.17.11-10.22,0-6.5-.4-15.51,1.71-15.31-8.43.16-8.19,8-7.7,14.22-7.85,3.42-.08,6.85,0,10.27-.22,20.27-1.15,39.81-3.92,51.81-23.45,2.68-4.37,6.35-7.89,11.76-4.78,6.6,3.79,4.32,9.15,1.29,14.08C187,119.05,161.22,122.4,138.83,124.19Z" transform="translate(0.08 -0.18)"/><path class="a" d="M159.18,170.2q-18.5,0-37,0c-4.58,0-8.61-2-9.11-6.48-.65-5.82,3.75-8.88,9-8.94q37-.37,73.94,0c5.24.05,9.86,3.07,9.13,8.83s-5.92,6.73-11,6.72c-11.65,0-23.29,0-34.93,0Z" transform="translate(0.08 -0.18)"/><path class="a" d="M343.28,170.25c-11.65,0-23.31.06-35-.07-5.23-.07-9.77-1.8-9.38-8.11.3-4.89,4.34-7.2,8.55-7.25q37-.4,74-.09c5.15,0,9.92,2.58,9.47,8.52s-5.55,7-10.66,7Q361.79,170.29,343.28,170.25Z" transform="translate(0.08 -0.18)"/><path class="b" d="M92.56,430.07c-15.16-13.11-28.43-27-39.8-43.55A244.55,244.55,0,0,1,26,335.39C12.09,298.81,6.75,259.21,11.78,220.33a243,243,0,0,1,39.7-105.26,239.6,239.6,0,0,1,78-72.13c32.49-18.83,69-30.4,106.58-32.41a240.58,240.58,0,0,1,199,86.83,236.62,236.62,0,0,1,48.24,96.51,244.1,244.1,0,0,1-1.87,119.19,233.18,233.18,0,0,1-50.74,93.75c-6.5,7.29-13.4,14.21-20.47,20.94" transform="translate(0.08 -0.18)"/><path class="b" d="M99.25,436.12" transform="translate(0.08 -0.18)"/><path class="b" d="M288.49,486.32c-25.14,3.39-50.81,4.25-75.94.3" transform="translate(0.08 -0.18)"/><path class="c" d="M312,481.39" transform="translate(0.08 -0.18)"/><path class="c" d="M400.94,436" transform="translate(0.08 -0.18)"/><path class="d" d="M134.76,188.88c.34,23,2.85,200,1,222.12a17.33,17.33,0,0,1-2.36,8c-6.89,11.14-23.77,5.17-34.26,13.82-10,8.22-12.13,27.94-5.27,39.83,9.08,15.73,32.68,15.46,68.24,15.06,31.51-.36,54.88-.63,64-16,5.69-9.61,6-25.36-1.27-33.5-2.2-2.46-5.62-4.16-12.38-7.45a154.63,154.63,0,0,0-21.17-8.47c-9-2.92-16-47-7.06-229.64" transform="translate(0.08 -0.18)"/><path class="d" d="M320,188.88c.33,23,2.84,200,.94,222.12a17.31,17.31,0,0,1-2.35,8c-6.9,11.14-23.78,5.17-34.26,13.82-10,8.22-12.13,27.94-5.27,39.83,9.08,15.73,32.67,15.46,68.23,15.06,31.52-.36,54.89-.63,64-16,5.7-9.61,6-25.36-1.27-33.5-2.2-2.46-5.62-4.16-12.38-7.45a163.87,163.87,0,0,0-21.17-8.47c-6.58-2.69-10.3-46.45-7.06-229.64" transform="translate(0.08 -0.18)"/></svg>