<svg xmlns="http://www.w3.org/2000/svg" viewBox="0 0 499 499"><defs><style>.a,.c,.d,.e{fill:none;stroke:#1f140f;}.a,.c,.d,.e,.f{stroke-linecap:round;}.a,.d,.e,.f{stroke-miterlimit:10;}.a{stroke-width:20px;}.b{fill:#1f140f;}.c{stroke-linejoin:round;}.c,.d{stroke-width:23px;}.e{stroke-width:10px;}.f{fill:#fff;stroke:#fff;stroke-width:14px;}</style></defs><path class="a" d="M355.59,35" transform="translate(-0.5 -0.5)"/><path class="a" d="M340.63,28.24" transform="translate(-0.5 -0.5)"/><path class="a" d="M464.39,143.13A238.46,238.46,0,0,1,489.5,250c0,132.27-107.23,239.5-239.5,239.5S10.5,382.27,10.5,250,117.73,10.5,250,10.5a238.78,238.78,0,0,1,90.63,17.74" transform="translate(-0.5 -0.5)"/><path class="a" d="M458.58,132.21" transform="translate(-0.5 -0.5)"/><path class="a" d="M444.44,110.14" transform="translate(-0.5 -0.5)"/><path class="b" d="M143.39,197.65a22.22,22.22,0,0,1,2.07-10.77c1.76-3.67.14-4.7-3-5.58-16.12-4.54-32.2-9.24-48.33-13.74-5.71-1.59-9.66-4.78-10.48-10.76-.64-4.71,1.3-8.66,5.13-11.58s8-2.53,12.18-1.3q48.46,14.37,96.87,28.92c6.71,2,13.49,3.8,20.07,6.15,8.13,2.92,11.08,10.71,7.14,17.79a11.48,11.48,0,0,1-14.68,5.3c-5.28-2.12-7.67-2.24-9.36,4.47-3.55,14.08-18.29,23.25-31.75,21C154.06,225.08,143.35,212.69,143.39,197.65Z" transform="translate(-0.5 -0.5)"/><path class="b" d="M327.09,227.77c-13.78.07-26.39-9.8-29-23.56-.84-4.47-2.34-4.63-5.67-3.18a14.82,14.82,0,0,1-2.13.57c-8,2.14-14.28-.84-16.5-7.85-2-6.37,1.82-12.68,9.47-15q58-17.53,116-34.87c7.88-2.35,14.15.9,16.35,8,2.12,6.84-1.5,13.14-9.44,15.51Q382,174.58,357.8,181.3c-3.53,1-4.41,2.14-3.11,5.92C361.65,207.57,347.84,227.67,327.09,227.77Z" transform="translate(-0.5 -0.5)"/><path class="c" d="M355.59,339.35" transform="translate(-0.5 -0.5)"/><path class="c" d="M143.82,339.35" transform="translate(-0.5 -0.5)"/><path class="d" d="M153.35,334.76c1.51-2.55,26.86-62.13,96.36-61.76s95.21,59.17,96.7,61.76" transform="translate(-0.5 -0.5)"/><path class="e" d="M379.66,21.41c1.26,1.66,12.37,15.7,31.62,15.78,20,.08,31.33-14.92,32.45-16.45" transform="translate(-0.5 -0.5)"/><path class="e" d="M443.73,123c-1.27-1.66-12.37-15.71-31.63-15.78-20-.08-31.33,14.92-32.44,16.45" transform="translate(-0.5 -0.5)"/><path class="e" d="M462.57,40.09c-1.66,1.26-15.71,12.37-15.78,31.62-.08,20,14.92,31.33,16.45,32.45" transform="translate(-0.5 -0.5)"/><path class="e" d="M359.85,104.16c1.66-1.27,15.71-12.37,15.78-31.63.08-20-14.92-31.33-16.45-32.44" transform="translate(-0.5 -0.5)"/><path class="f" d="M82.06,378.53" transform="translate(-0.5 -0.5)"/><path class="f" d="M46.06,303.88" transform="translate(-0.5 -0.5)"/><path class="f" d="M97.94,393.88" transform="translate(-0.5 -0.5)"/></svg>