<svg xmlns="http://www.w3.org/2000/svg" xmlns:xlink="http://www.w3.org/1999/xlink" viewBox="0 0 499 499"><defs><style>.a{fill:url(#a);}.b,.f,.g{fill:none;stroke-miterlimit:10;}.b,.f{stroke:#1f140f;stroke-width:20px;}.b,.g{stroke-linecap:round;}.c{fill:#e4472e;}.d{fill:#b0afb5;}.e{fill:#1f140f;}.g{stroke:#fff;stroke-width:10px;}</style><linearGradient id="a" x1="139.63" y1="48.07" x2="366.86" y2="453.47" gradientUnits="userSpaceOnUse"><stop offset="0" stop-color="#ffef00"/><stop offset="1" stop-color="#f6b63e"/></linearGradient></defs><circle class="a" cx="252.53" cy="249.5" r="235.01"/><circle class="b" cx="249.5" cy="249.5" r="239.5"/><polygon class="c" points="157.62 382.27 178.87 361.02 228.73 342.22 274.91 338.95 311.69 348.76 349.69 366.74 361.55 378.72 320.27 408.02 255.01 420.28 198.89 410.88 164.56 395.35 157.62 382.27"/><polygon class="d" points="101.63 254.36 412.43 254.36 412.43 291.95 374.62 364.7 364 364.7 299.88 338.91 239.76 328.74 183.36 345.9 144.13 373.69 113.07 335 92.64 287.75 95.91 254.36 101.63 254.36"/><path class="e" d="M150.61,123c30.32-.14,56.63,23.65,59.07,53.38.67,8.23.57,16.48-9.92,18-11.08,1.55-13.66-6.25-14.95-15.2-2.55-17.68-14.58-29.5-31.26-31.18-13.81-1.39-28.88,7.76-34.26,21.28a55.58,55.58,0,0,0-3.05,13.11c-1.11,8.25-5.27,13-13.84,12.09-8.76-1-11.17-7.46-10.91-15.13C92.5,148.91,119.64,123.14,150.61,123Z" transform="translate(-0.5 -0.5)"/><path class="e" d="M359.21,123c31.47-.35,59.57,26.37,59.79,56.52.06,8-2.09,14.08-10.86,14.89-9.26.86-13-4.65-14-13.27-2.47-20.18-16.26-33.31-34.38-33.26s-32,13.14-34.42,33.38c-1.07,8.92-4.91,14.06-14,13.14-9.49-1-11.29-8.07-10.91-16.2C301.79,148.72,328.83,123.32,359.21,123Z" transform="translate(-0.5 -0.5)"/><path class="f" d="M104.52,244.58h301a14.07,14.07,0,0,1,14.07,14.07v24.66A142.12,142.12,0,0,1,277.45,425.42H232.57A142.12,142.12,0,0,1,90.45,283.31V258.64a14.07,14.07,0,0,1,14.07-14.07Z"/><path class="f" d="M150.94,379.22c9.87-9.79,42.46-39.62,93.59-44.82,70.23-7.13,118.32,38,125.3,44.82" transform="translate(-0.5 -0.5)"/><path class="g" d="M35.1,290a287.67,287.67,0,0,0,8.59,28.81c3.18,8.95,6.59,17.14,10,24.52" transform="translate(-0.5 -0.5)"/><path class="g" d="M59.22,354.16l2,4.09" transform="translate(-0.5 -0.5)"/></svg>