<svg xmlns="http://www.w3.org/2000/svg" viewBox="0 0 433.67 433.67"><defs><style>.a{fill:#3d152d;}.b,.c{fill:none;stroke:#1f140f;stroke-miterlimit:10;stroke-width:20px;}.b{stroke-linecap:round;}</style></defs><path class="a" d="M164.17,172.89c26.18-.12,48.9,20.43,51,46.1.58,7.11.49,14.24-8.57,15.5-9.56,1.34-11.79-5.39-12.91-13.13-2.2-15.26-12.59-25.47-27-26.92-11.93-1.2-24.94,6.7-29.59,18.38a48.18,48.18,0,0,0-2.63,11.32c-.95,7.13-4.55,11.26-11.95,10.44-7.57-.84-9.64-6.45-9.42-13.07C114,195.27,137.42,173,164.17,172.89Z" transform="translate(-33.16 -65.73)"/><path class="a" d="M344.32,172.89c27.17-.3,51.44,22.77,51.63,48.82.05,6.88-1.8,12.15-9.38,12.85-8,.75-11.19-4-12.1-11.46-2.13-17.43-14-28.77-29.69-28.73s-27.63,11.36-29.72,28.83c-.92,7.71-4.24,12.15-12.08,11.35-8.2-.83-9.76-7-9.43-14C294.73,195.11,318.08,173.17,344.32,172.89Z" transform="translate(-33.16 -65.73)"/><circle class="b" cx="216.84" cy="216.84" r="206.84"/><path class="c" d="M93.55,212.59h256.1a14.07,14.07,0,0,1,14.07,14.07v0A142.12,142.12,0,0,1,221.6,368.77h0A142.12,142.12,0,0,1,79.48,226.65v0A14.07,14.07,0,0,1,93.55,212.59Z"/><path class="c" d="M164.45,394.17c8.52-8.45,36.67-34.22,80.82-38.71,60.66-6.16,102.19,32.85,108.22,38.71" transform="translate(-33.16 -65.73)"/></svg>