<svg xmlns="http://www.w3.org/2000/svg" viewBox="0 0 499.8 499.79"><defs><style>.a{fill:#030202;}</style></defs><path class="a" d="M499.31,228.57c0-21.74-5.43-42.4-12.49-62.74-2.85-8.27-6.46-16-6.3-25.27.41-24.28-14-45.27-36.5-54.42a23.19,23.19,0,0,1-10.12-7.32c-6-7.84-13.66-13.92-21-20.22a238.8,238.8,0,0,0-61.71-38.7C328.39,10.1,304.9,2.73,280,.84c-3.84-.28-7.76.34-11.52-.84h-39c-7.34,1.11-14.82.8-22.18,2.11C171,8.59,137.66,22,107.4,42.89,92,53.57,77.62,65.41,65.25,79.57a23,23,0,0,1-8.6,6.2C32.57,95.84,19,116,19.13,142a40.21,40.21,0,0,1-3,15.62A222.57,222.57,0,0,0,1.24,213.52C.58,218.79,1,224.15,0,229.4v41c1,5.25.5,10.63,1.26,15.88A251.77,251.77,0,0,0,203.4,497c8.62,1.68,17.37,1.62,26,2.84h38.07c1.83-1.05,3.81-.4,5.71-.48a142.14,142.14,0,0,0,18.89-1.6A251.9,251.9,0,0,0,496.88,296.86c1.72-8.78,1.71-17.68,2.92-26.48v-40A2.45,2.45,0,0,1,499.31,228.57ZM434.86,106.71c13.77,5.14,21.56,15.61,23,30.43a56.39,56.39,0,0,1,0,6.76c-.62,36.24-18.22,63.44-45.58,85.35-9.91,7.93-20.6,14.66-32.53,19.22-2,.78-4.07,1.7-6.48.52C341,233.14,314,211.61,298.82,178c-6.71-14.9-9.62-30.88-5.9-47,3.43-14.86,13.95-23.66,28.81-26.19,14.26-2.42,25.79,2.9,34.1,14.87a68,68,0,0,1,8.39,17.43c2,6,5.74,8.93,10.82,8.81,4.91-.11,8.4-2.92,10.35-8.78,2.79-8.4,6.47-16.28,12.74-22.68C408.63,103.75,421.33,101.67,434.86,106.71ZM43.06,130.9c3.44-14.85,14-23.65,28.83-26.17,14-2.38,25.48,2.75,33.8,14.49a68.09,68.09,0,0,1,8.55,17.36c2.25,6.51,5.73,9.39,11,9.26,5-.12,8.28-3,10.45-9.27,2.44-7.1,5.51-13.85,10.35-19.67,9.77-11.78,23.71-15.64,38.12-10.63a35.17,35.17,0,0,1,24,32.28c0,1.81-.06,3.59-.06,5.35-.68,36.24-18.3,63.44-45.66,85.35-9.91,7.93-20.61,14.65-32.53,19.21-2,.78-4.08,1.68-6.48.5C91.11,233.13,64.09,211.61,49,177.9,42.24,163,39.33,147,43.06,130.9Zm365.48,284c-73.94,71.43-188.77,84.43-277,31C41.39,391.12,2.21,284.9,29.72,187.2c12.47,27.44,32.08,47.81,56,64.34a160.38,160.38,0,0,0,32.85,17.76c6.92,2.69,13.53,1.17,19.81-1.6,45.18-19.87,76.9-51.79,88.3-101,3.72-16,5-32.48-1.88-48.32-9.19-21.12-25.57-33-48.22-34.93-21-1.79-37.9,6.82-50.08,24.23-.43.61-.53,1.62-2,1.65A55.6,55.6,0,0,0,92,85c80.36-81.87,226.76-88.34,315.86-.29-19.49,8.54-22.61,10.89-32.71,24.63-1.34.13-1.46-1.12-2-1.84-13.55-19.29-35.95-28.16-57.89-22.9-23.7,5.7-40.9,23.6-43.9,47.1-3.64,28.53,4.39,54.37,20.73,77.56,18.58,26.38,43.36,45.31,72.67,58.62,8.29,3.76,15.89,2.87,23.92-.19,34.12-13,64.44-42.22,81.32-78.51C488.38,245.67,482.67,343.26,408.54,414.86Z"/><path class="a" d="M414.84,302.32c-5.73-16.6-21.72-24.18-37.81-18a53.32,53.32,0,0,1-5.54,1.78c-14.1,3.67-28.58,4.49-43,4.67-58.23.7-116.46,1.89-174.66-.93-12.44-.6-25-1.92-36.34-7.82-2.5-1.29-5.11-1-7.64-.66-12.91,1.91-23.29,12.1-26,25-1.71,8.16-.68,16.25.47,24.25,5.24,36.29,24,64.29,53.73,85.07,33.54,23.43,71.61,31.63,108.31,32.27,29.24,0,55.91-4.19,77.85-12.68,48.3-18.85,82.31-50.54,91.09-104C416.84,321.72,418.16,311.92,414.84,302.32ZM339.58,404.94c-21.59,12-44.73,18.55-69.23,20.83-6.86.64-13.65.94-20.45,1-30.77-.08-60.18-5.9-87.47-20.7-6.42-3.49-6.74-4.32-2.45-10.5,7.26-10.47,18.08-16.13,29.49-20.53,26.28-10.14,53.61-11.94,81.4-9.21,18,1.77,35.41,6,51.42,14.79,7.76,4.27,14.73,9.48,19.2,17.45C343.21,401.1,343.06,403,339.58,404.94Zm37.88-34a101.05,101.05,0,0,1-16.7,18.53C350.51,371,334,361.39,315.58,354.52c-27.23-10.16-55.52-12.55-84.35-10.13-23,1.93-45.06,7.2-65.31,18.73-12.43,7.07-19.52,14.06-27,26.33-18.17-16.31-29.79-36.15-33.58-60.38a100.82,100.82,0,0,1-1.06-16,11.45,11.45,0,0,1,4.21-8.93,4.07,4.07,0,0,1,4.8-.89c14.17,5.84,29.24,7.38,44.3,8,55.11,2.27,110.25,1.24,165.37.8,18.94-.16,38-.89,56.45-6.33,1.24-.37,2.49-.71,3.71-1.14,7.6-2.75,12.16.49,12.27,8.84C395.66,334.52,389.52,353.65,377.46,370.92Z"/></svg>