<svg xmlns="http://www.w3.org/2000/svg" xmlns:xlink="http://www.w3.org/1999/xlink" viewBox="0 0 499.81 499.81"><defs><style>.a{fill:#030202;}.b{fill:url(#a);}.c{fill:#e0040b;}.d{fill:#5c5b5f;}.e{fill:#fff;}</style><linearGradient id="a" x1="151.72" y1="46.9" x2="419.96" y2="613.72" gradientUnits="userSpaceOnUse"><stop offset="0" stop-color="#fff13d"/><stop offset="0" stop-color="#fff13c"/><stop offset="0.07" stop-color="#fde122"/><stop offset="0.14" stop-color="#fcd50f"/><stop offset="0.21" stop-color="#fbce04"/><stop offset="0.28" stop-color="#fbcc00"/><stop offset="0.67" stop-color="#ef963b"/><stop offset="0.89" stop-color="#e87037"/><stop offset="1" stop-color="#e14332"/></linearGradient></defs><path class="a" d="M.1,270.5v-41c1-5.25.58-10.61,1.24-15.88a222.45,222.45,0,0,1,14.89-55.87,40.2,40.2,0,0,0,3-15.62c-.09-26,13.44-46.19,37.52-56.26a23,23,0,0,0,8.6-6.2c12.37-14.16,26.74-26,42.15-36.68,30.26-20.93,63.63-34.3,99.82-40.78C214.68.9,222.16,1.21,229.5.1h39.05c3.76,1.18,7.68.56,11.52.84C305,2.83,328.49,10.2,351.29,20A239,239,0,0,1,413,58.7C420.34,65,428,71.08,434,78.92a23.21,23.21,0,0,0,10.12,7.32c22.48,9.15,36.91,30.14,36.5,54.42-.16,9.25,3.45,17,6.3,25.27,7.06,20.34,12.51,41,12.49,62.74a2.45,2.45,0,0,0,.49,1.81v40c-1.21,8.8-1.2,17.7-2.92,26.48a252,252,0,0,1-52.93,112.69,252.63,252.63,0,0,1-151.88,88.16,141.86,141.86,0,0,1-18.89,1.6c-1.9.08-3.88-.57-5.71.48H229.5c-8.63-1.22-17.38-1.16-26-2.84A251.55,251.55,0,0,1,90,443.72,251.59,251.59,0,0,1,1.36,286.38C.6,281.13,1.05,275.75.1,270.5Z" transform="translate(-0.1 -0.1)"/><path class="b" d="M29.82,187.3c12.47,27.44,32.08,47.81,56,64.34a160.83,160.83,0,0,0,32.85,17.76c6.92,2.69,13.53,1.17,19.81-1.6,45.18-19.87,76.9-51.79,88.3-101,3.72-16,5-32.48-1.88-48.32-9.19-21.12-25.57-33-48.22-34.93-21-1.79-37.9,6.82-50.08,24.23-.43.61-.53,1.62-2,1.65A55.61,55.61,0,0,0,92.08,85.05c80.36-81.87,226.76-88.34,315.86-.29-19.49,8.54-22.61,10.89-32.71,24.63-1.34.13-1.46-1.12-2-1.84-13.55-19.29-35.95-28.16-57.89-22.9-23.7,5.7-40.9,23.6-43.9,47.1-3.64,28.53,4.39,54.37,20.73,77.56,18.58,26.38,43.36,45.31,72.67,58.62,8.29,3.76,15.89,2.87,23.92-.19,34.12-13,64.44-42.22,81.32-78.51,18.4,56.54,12.69,154.13-61.44,225.73-73.94,71.43-188.77,84.43-277,31C41.49,391.22,2.31,285,29.82,187.3Z" transform="translate(-0.1 -0.1)"/><path class="c" d="M208.2,144c-.68,36.24-18.3,63.44-45.66,85.35-9.91,7.93-20.61,14.65-32.53,19.21-2,.78-4.08,1.68-6.48.5C91.21,233.23,64.19,211.71,49.05,178c-6.71-14.9-9.62-30.89-5.89-47,3.44-14.85,14-23.65,28.83-26.17,14-2.38,25.48,2.75,33.8,14.49a67.93,67.93,0,0,1,8.55,17.36c2.25,6.51,5.73,9.39,11,9.26,5-.12,8.28-3,10.45-9.27,2.44-7.1,5.51-13.85,10.35-19.67,9.77-11.78,23.71-15.64,38.12-10.63a35.18,35.18,0,0,1,24,32.28C208.24,140.46,208.2,142.24,208.2,144Z" transform="translate(-0.1 -0.1)"/><path class="c" d="M458,144c-.62,36.24-18.22,63.44-45.58,85.35-9.91,7.93-20.6,14.66-32.53,19.22-2,.78-4.07,1.7-6.48.52-32.32-15.85-59.34-37.38-74.49-71-6.71-14.9-9.62-30.88-5.9-47,3.43-14.86,13.95-23.66,28.81-26.19,14.26-2.42,25.79,2.9,34.1,14.87a68,68,0,0,1,8.39,17.43c2,6,5.74,8.93,10.82,8.81,4.91-.11,8.4-2.92,10.35-8.78,2.79-8.4,6.47-16.28,12.74-22.68,10.5-10.7,23.2-12.78,36.73-7.74,13.77,5.14,21.56,15.61,23,30.43C458.23,139.44,458,141.74,458,144Z" transform="translate(-0.1 -0.1)"/><path class="a" d="M246.46,448.05c-36.7-.64-74.77-8.84-108.31-32.27C108.4,395,89.66,367,84.42,330.71c-1.15-8-2.18-16.09-.47-24.25,2.71-12.9,13.09-23.09,26-25,2.53-.38,5.14-.63,7.64.66,11.39,5.9,23.9,7.22,36.34,7.82,58.2,2.82,116.43,1.63,174.66.93,14.42-.18,28.9-1,43-4.67a53.32,53.32,0,0,0,5.54-1.78c16.09-6.18,32.08,1.4,37.81,18,3.32,9.6,2,19.4.46,28.95-8.78,53.46-42.79,85.15-91.09,104C302.37,443.86,275.7,448.06,246.46,448.05Z" transform="translate(-0.1 -0.1)"/><path class="d" d="M360.86,389.55c-10.25-18.41-26.79-28.06-45.18-34.93-27.23-10.16-55.52-12.55-84.35-10.13-23,1.93-45.06,7.2-65.31,18.73-12.43,7.07-19.52,14.06-27,26.33-18.17-16.31-29.79-36.15-33.58-60.38a101.24,101.24,0,0,1-1.06-16,11.47,11.47,0,0,1,4.21-8.93,4.07,4.07,0,0,1,4.8-.89c14.17,5.84,29.24,7.38,44.3,8,55.11,2.27,110.25,1.24,165.37.8,18.94-.16,38-.89,56.45-6.33,1.24-.37,2.49-.71,3.71-1.14,7.6-2.75,12.16.49,12.27,8.84.27,21.1-5.87,40.23-17.93,57.5A100.92,100.92,0,0,1,360.86,389.55Z" transform="translate(-0.1 -0.1)"/><path class="c" d="M250,426.82c-30.77-.08-60.18-5.9-87.47-20.7-6.42-3.49-6.74-4.32-2.45-10.5,7.26-10.47,18.08-16.13,29.49-20.53,26.28-10.14,53.61-11.94,81.4-9.21,18,1.77,35.41,6,51.42,14.79,7.76,4.27,14.73,9.48,19.2,17.45,1.72,3.08,1.57,5-1.91,6.92-21.59,12-44.73,18.55-69.23,20.83C263.59,426.51,256.8,426.81,250,426.82Z" transform="translate(-0.1 -0.1)"/><path class="e" d="M310.76,157.14c2.49,16.74,11,30.16,21.17,43.32,2.49,3.24,6.42,4.88,10.26,2.69,3.18-1.81,5.16-7.05,2.69-10.26-9.42-12.24-17.34-24.16-19.65-39.74-.6-4-5.67-6.24-9.23-5.24-4.29,1.2-5.84,5.19-5.24,9.23Z" transform="translate(-0.1 -0.1)"/><path class="e" d="M55.71,160.9a95.23,95.23,0,0,0,20.7,35.17c6.57,7.1,17.15-3.53,10.6-10.61a77.74,77.74,0,0,1-16.84-28.55c-3-9.12-17.5-5.21-14.46,4Z" transform="translate(-0.1 -0.1)"/><path class="e" d="M40.76,296.65c7.73,0,7.74-12,0-12s-7.73,12,0,12Z" transform="translate(-0.1 -0.1)"/><path class="e" d="M38.22,306.81A357.75,357.75,0,0,0,58.61,355.4c3.51,6.88,13.87.81,10.36-6.06a336.49,336.49,0,0,1-19.18-45.72c-2.45-7.28-14-4.16-11.57,3.19Z" transform="translate(-0.1 -0.1)"/></svg>