<svg xmlns="http://www.w3.org/2000/svg" viewBox="0 0 463.67 463.69"><defs><style>.a{fill:#d61f27;}.b{fill:#fefefe;}</style></defs><path class="a" d="M24.17,246.17C23.69,119.51,127.7,14.52,254,14.2c129.54-.33,233.45,102.36,233.84,231.1A231.68,231.68,0,0,1,256,477.89C128.27,478,24.66,374.41,24.17,246.17Z" transform="translate(-24.17 -14.2)"/><path class="b" d="M70.25,245.62C70.35,143.3,153.62,60.16,256,60.15c103.13,0,186.28,83.49,186.06,186.85-.22,102-83.93,185.11-186.31,184.9C153.06,431.69,70.14,348.4,70.25,245.62Z" transform="translate(-24.17 -14.2)"/><path class="a" d="M154.27,321.3c0-5.85,2.73-10.37,6.78-14.4,19.14-19,38.15-38.24,57.39-57.19,3-3,3-4.46,0-7.44-19.11-18.81-38-37.84-56.95-56.83-9.77-9.8-9.38-19.5-.17-29.7,14.21-15.71,24.82-14.93,38.65-.23,17.08,18.15,35.21,35.3,52.69,53.08,2.86,2.9,4.28,2.63,7-.1,18.71-19,37.61-37.7,56.44-56.54,10.51-10.52,19.83-10.12,30.9-.16,14.5,13.06,14.38,24.17.24,37.45-18.3,17.19-35.57,35.46-53.5,53-3.05,3-3,4.43,0,7.4,19.13,18.81,38,37.83,57,56.81,9.77,9.79,9.4,19.5.26,29.67-14.32,15.93-25,14.81-38.65.36-17.15-18.1-35.25-35.23-52.75-53-2.73-2.77-4.16-2.93-7-.05-17.62,17.9-35.86,35.2-53.08,53.48-13.21,14-24.23,15.14-37.82-.29C156.43,330.64,154.25,327.1,154.27,321.3Z" transform="translate(-24.17 -14.2)"/></svg>